<?xml version="1.0" standalone="no"?><!DOCTYPE svg PUBLIC "-//W3C//DTD SVG 1.1//EN" "http://www.w3.org/Graphics/SVG/1.1/DTD/svg11.dtd"><svg t="1555171892456" class="icon" style="" viewBox="0 0 1025 1024" version="1.1" xmlns="http://www.w3.org/2000/svg" p-id="2023" xmlns:xlink="http://www.w3.org/1999/xlink" width="200.1953125" height="200"><defs><style type="text/css"></style></defs><path d="M933.875 667.769v-415.398c0-89.578-72.64-162.247-162.247-162.247h-519.257c-89.578 0-162.247 72.64-162.247 162.247v519.257c0 89.578 72.64 162.247 162.247 162.247h519.257c79.833 0 146.234-57.694 159.739-133.674-43.010-18.503-229.54-99.030-326.659-145.483-73.909 89.539-151.342 143.264-268.058 143.264-116.716 0-194.602-71.798-185.212-159.831 6.163-57.78 45.78-152.112 217.775-135.887 90.651 8.552 132.162 25.462 206.163 49.822 19.016-35.045 34.979-73.643 46.962-114.726h-327.761v-32.452h162.143v-58.413h-197.819v-35.697h197.819v-84.151c0 0 1.864-13.205 16.339-13.205h81.13v97.356h210.937v35.697h-210.938v58.413h171.995c-15.769 64.437-39.718 123.547-69.793 175.278 50.030 18.048 277.485 87.583 277.485 87.583 0 0 0 0 0 0zM323.779 742.407c-123.318 0-142.788-77.885-136.298-110.337s42.188-74.64 110.743-74.64c78.833 0 149.316 20.114 234.033 61.377-59.424 77.44-132.575 123.6-208.477 123.6z" p-id="2024" fill="#1296db"></path></svg>